<?xml version="1.0"?>
<svg xmlns="http://www.w3.org/2000/svg" xmlns:xlink="http://www.w3.org/1999/xlink" xmlns:svgjs="http://svgjs.com/svgjs" version="1.1" width="512" height="512" x="0" y="0" viewBox="0 0 512 512" style="enable-background:new 0 0 512 512" xml:space="preserve" class=""><g><g xmlns="http://www.w3.org/2000/svg"><g><path d="m372.692 161.089c1.465 1.464 3.385 2.196 5.304 2.196s3.839-.732 5.304-2.196c2.929-2.93 2.929-7.678 0-10.607l-43-43c-2.93-2.928-7.678-2.928-10.607 0-2.929 2.93-2.929 7.678 0 10.607z" fill="#6b6666" data-original="#000000" style=""/><path d="m282.63 247.01c1.465 1.464 3.385 2.196 5.304 2.196s3.839-.732 5.304-2.196c2.929-2.93 2.929-7.678 0-10.607l-32-32c-2.93-2.928-7.678-2.928-10.607 0-2.929 2.93-2.929 7.678 0 10.607z" fill="#6b6666" data-original="#000000" style=""/><path d="m509.378 422.468-57.116-74.243v-16.067l1.681 1.681c1.465 1.464 3.385 2.196 5.304 2.196s3.839-.732 5.304-2.196c2.929-2.93 2.929-7.678 0-10.607l-12.288-12.288v-39.195l10.367-10.366c2.929-2.93 2.929-7.678 0-10.607-2.93-2.928-7.678-2.928-10.607 0l-12.563 12.563c-1.406 1.407-2.196 3.314-2.196 5.304v27.302l-10.464-10.464c-2.93-2.928-7.678-2.928-10.607 0-2.929 2.93-2.929 7.678 0 10.607l21.069 21.069v110.557h-11.404v-69.557c0-4.143-3.357-7.5-7.5-7.5h-23.358c-4.143 0-7.5 3.357-7.5 7.5v69.557h-11.404v-159.072c0-1.989-.79-3.896-2.196-5.304l-44.994-44.994c-2.025-2.024-2.024-5.319.001-7.345 2.022-2.024 5.32-2.026 7.345 0l35.349 35.349c6.805 12.386 19.976 20.802 35.078 20.802s28.273-8.416 35.078-20.802l35.349-35.349c2.024-2.026 5.322-2.024 7.345 0 .981.98 1.522 2.285 1.522 3.673 0 1.387-.54 2.691-1.522 3.673l-7.681 7.682c-2.929 2.929-2.929 7.678.001 10.606 2.927 2.927 7.676 2.93 10.606-.001l7.68-7.681c3.814-3.813 5.916-8.885 5.916-14.279s-2.101-10.466-5.915-14.28c-7.874-7.871-20.684-7.873-28.56 0l-20.344 20.345c-3.08-19.015-19.605-33.581-39.476-33.581s-36.396 14.567-39.476 33.581l-20.344-20.345c-7.874-7.874-20.687-7.873-28.561.001-7.873 7.874-7.872 20.686 0 28.559l16.57 16.57-56.554 73.511-54.449-79.727c-2.337-3.422-7.003-4.302-10.423-1.964-3.421 2.336-4.3 7.003-1.964 10.423l5.762 8.437-24.304 35.586-10.359-15.17c-2.331-3.412-6.19-5.449-10.322-5.449s-7.991 2.037-10.322 5.45l-28.747 42.093-20.785-30.436 63.373-92.793 15.955 23.362c2.335 3.42 7.002 4.299 10.423 1.964 3.421-2.336 4.3-7.003 1.964-10.423l-20.842-30.518v-37.548h52.301c5.815 0 10.547-4.731 10.547-10.547v-36.371c0-5.815-4.731-10.547-10.547-10.547h-59.801c-4.143 0-7.5 3.357-7.5 7.5v87.512l-166.077 243.177c-2.638 3.861-2.92 8.83-.736 12.966s6.445 6.705 11.122 6.705h92.414c4.143 0 7.5-3.357 7.5-7.5s-3.357-7.5-7.5-7.5h-87.826l86.148-126.141 19.546 28.62c2.331 3.412 6.19 5.449 10.323 5.449 4.132 0 7.991-2.037 10.322-5.45l28.746-42.092 10.359 15.17c2.331 3.412 6.19 5.449 10.322 5.449s7.991-2.037 10.322-5.45l23.064-33.771 108.052 158.215h-194.378c-4.143 0-7.5 3.357-7.5 7.5s3.357 7.5 7.5 7.5h359.413c4.828 0 9.152-2.691 11.284-7.022 2.133-4.332 1.628-9.399-1.315-13.224zm-102.699-220.313c13.783 0 24.997 11.214 24.997 24.997 0 13.784-11.214 24.998-24.997 24.998s-24.997-11.214-24.997-24.998c0-13.783 11.214-24.997 24.997-24.997zm-223.407-102.3h47.848v27.465h-47.848zm177.824 327.86h-8.558l-65.324-95.651 58.351-75.847 15.531 15.531zm49.761 0h-8.357v-62.057h8.357zm41.405 0v-54.89l42.228 54.89z" fill="#6b6666" data-original="#000000" style=""/><path d="m101.692 112.089c1.465 1.464 3.385 2.196 5.304 2.196s3.839-.732 5.304-2.196c2.929-2.93 2.929-7.678 0-10.607l-30-30c-2.93-2.928-7.678-2.928-10.607 0-2.929 2.93-2.929 7.678 0 10.607z" fill="#6b6666" data-original="#000000" style=""/><path d="m75.692 165.481c-2.929 2.93-2.929 7.678 0 10.607l21 21c1.465 1.464 3.385 2.196 5.304 2.196s3.839-.732 5.304-2.196c2.929-2.93 2.929-7.678 0-10.607l-21-21c-2.93-2.927-7.678-2.927-10.608 0z" fill="#6b6666" data-original="#000000" style=""/><path d="m259.996 403.285c1.919 0 3.839-.732 5.304-2.196 2.929-2.93 2.929-7.678 0-10.607l-49-49c-2.93-2.928-7.678-2.928-10.607 0-2.929 2.93-2.929 7.678 0 10.607l49 49c1.464 1.464 3.384 2.196 5.303 2.196z" fill="#6b6666" data-original="#000000" style=""/></g></g></g></svg>
